# Blender 5.1.2
# www.blender.org
mtllib revolverchassis.mtl
o Cylinder
v -0.844111 3.159230 -0.736937
v 8.796538 3.159230 -0.736937
v -0.844111 3.015460 -0.722777
v 8.796538 3.015461 -0.722777
v -0.844111 2.877216 -0.680841
v 8.796538 2.877217 -0.680841
v -0.844111 2.749809 -0.612741
v 8.796538 2.749810 -0.612741
v -0.844111 2.638136 -0.521093
v 8.796538 2.638137 -0.521093
v -0.844111 2.546489 -0.409420
v 8.796538 2.546489 -0.409420
v -0.844111 2.478388 -0.282014
v 8.796538 2.478389 -0.282014
v -0.844111 2.436452 -0.143769
v 8.796538 2.436453 -0.143769
v -0.844111 2.422292 0.000000
v 8.796538 2.422293 0.000000
v -0.844111 2.436452 0.143769
v 8.796538 2.436453 0.143769
v -0.844111 2.478388 0.282014
v 8.796538 2.478389 0.282014
v -0.844111 2.546489 0.409420
v 8.796538 2.546489 0.409420
v -0.844111 2.638136 0.521093
v 8.796538 2.638137 0.521093
v -0.844111 2.749809 0.612741
v 8.796538 2.749810 0.612741
v -0.844111 2.877216 0.680841
v 8.796538 2.877217 0.680841
v -0.844111 3.015460 0.722777
v 8.796538 3.015461 0.722777
v -0.844111 3.159230 0.736937
v 8.796538 3.159230 0.736937
v -0.844111 3.302999 0.722777
v 8.796538 3.303000 0.722777
v -0.844111 3.441243 0.680841
v 8.796538 3.441244 0.680841
v -0.844111 3.568650 0.612741
v 8.796538 3.568651 0.612741
v -0.844111 3.680323 0.521093
v 8.796538 3.680324 0.521093
v -0.844111 3.771971 0.409420
v 8.796538 3.771971 0.409420
v -0.844111 3.840071 0.282014
v 8.796538 3.840072 0.282014
v -0.844111 3.882007 0.143769
v 8.796538 3.882008 0.143769
v -0.844111 3.896167 0.000000
v 8.796538 3.896168 0.000000
v -0.844111 3.882007 -0.143769
v 8.796538 3.882008 -0.143769
v -0.844111 3.840071 -0.282014
v 8.796538 3.840072 -0.282014
v -0.844111 3.771971 -0.409420
v 8.796538 3.771971 -0.409420
v -0.844111 3.680323 -0.521093
v 8.796538 3.680324 -0.521093
v -0.844111 3.568650 -0.612741
v 8.796538 3.568651 -0.612741
v -0.844111 3.441243 -0.680841
v 8.796538 3.441244 -0.680841
v -0.844111 3.302999 -0.722777
v 8.796538 3.303000 -0.722777
v 7.173487 3.159230 -0.736937
v 7.173487 3.015461 -0.722777
v 7.173487 2.877217 -0.680841
v 7.173487 2.749810 -0.612741
v 7.173487 2.638137 -0.521093
v 7.173487 2.546489 -0.409420
v 7.173487 2.478389 -0.282014
v 7.173487 2.436453 -0.143769
v 7.173487 2.422293 0.000000
v 7.173487 2.436453 0.143769
v 7.173487 2.478389 0.282014
v 7.173487 2.546489 0.409420
v 7.173487 2.638137 0.521093
v 7.173487 2.749810 0.612741
v 7.173487 2.877217 0.680841
v 7.173487 3.015461 0.722777
v 7.173487 3.159230 0.736937
v 7.173487 3.302999 0.722777
v 7.173487 3.441244 0.680841
v 7.173487 3.568651 0.612741
v 7.173487 3.680324 0.521093
v 7.173487 3.771971 0.409420
v 7.173487 3.840072 0.282014
v 7.173487 3.882008 0.143769
v 7.173487 3.896168 0.000000
v 7.173487 3.882008 -0.143769
v 7.173487 3.840072 -0.282014
v 7.173487 3.771971 -0.409420
v 7.173487 3.680324 -0.521093
v 7.173487 3.568651 -0.612741
v 7.173487 3.441244 -0.680841
v 7.173487 3.302999 -0.722777
v 8.078389 3.159230 -1.014277
v 8.078389 2.961354 -0.994788
v 8.078389 2.771083 -0.937070
v 8.078389 2.595728 -0.843341
v 8.078389 2.442028 -0.717202
v 8.078389 2.315889 -0.563502
v 8.078389 2.222160 -0.388147
v 8.078389 2.164442 -0.197876
v 8.078389 2.144953 -0.000000
v 8.078389 2.164442 0.197876
v 8.078389 2.222160 0.388147
v 8.078389 2.315889 0.563502
v 8.078389 2.442028 0.717202
v 8.078389 2.595728 0.843341
v 8.078389 2.771083 0.937070
v 8.078389 2.961354 0.994788
v 8.078389 3.159230 1.014277
v 8.078389 3.357106 0.994788
v 8.078389 3.547378 0.937070
v 8.078389 3.722733 0.843341
v 8.078389 3.876433 0.717202
v 8.078389 4.002571 0.563502
v 8.078389 4.096301 0.388147
v 8.078389 4.435967 0.197876
v 8.078389 4.455456 -0.000000
v 8.078389 4.435967 -0.197876
v 8.078389 4.096301 -0.388147
v 8.078389 4.002571 -0.563502
v 8.078389 3.876433 -0.717202
v 8.078389 3.722733 -0.843341
v 8.078389 3.547378 -0.937070
v 8.078389 3.357106 -0.994788
v 3.514468 2.994732 -0.826985
v 3.514468 2.836556 -0.779003
v 3.514468 2.690780 -0.701084
v 3.514468 2.563007 -0.596223
v 3.514468 2.458146 -0.468450
v 3.514468 2.380227 -0.322674
v 3.514468 2.332244 -0.164498
v 3.514468 2.316043 0.000000
v 3.514468 2.332244 0.164498
v 3.514468 2.380227 0.322674
v 3.514468 2.458146 0.468450
v 3.514468 2.563007 0.596223
v 3.514468 2.690780 0.701084
v 3.514468 2.836556 0.779003
v 3.514468 2.994732 0.826985
v 3.514468 3.159230 0.843187
v 3.514468 3.323728 0.826985
v 3.514468 3.481904 0.779003
v 3.514468 3.627680 0.701084
v 3.514468 3.755453 0.596223
v 3.514468 3.860314 0.468450
v 3.514468 3.938233 0.322674
v 3.514468 3.986215 0.164498
v 3.514468 4.002417 0.000000
v 3.514468 3.986215 -0.164498
v 3.514468 3.938233 -0.322674
v 3.514468 3.860314 -0.468450
v 3.514468 3.755453 -0.596223
v 3.514468 3.627680 -0.701084
v 3.514468 3.481904 -0.779003
v 3.514468 3.323728 -0.826985
v 3.514468 3.159230 -0.843187
vn 0.3587 -0.0915 -0.9289
vn 0.3587 -0.2710 -0.8932
vn 0.3587 -0.4400 -0.8232
vn 0.3587 -0.5922 -0.7216
vn 0.3587 -0.7216 -0.5922
vn 0.3587 -0.8232 -0.4400
vn 0.3587 -0.8932 -0.2710
vn 0.3587 -0.9289 -0.0915
vn 0.3587 -0.9289 0.0915
vn 0.3587 -0.8932 0.2710
vn 0.3587 -0.8232 0.4400
vn 0.3587 -0.7216 0.5922
vn 0.3587 -0.5922 0.7216
vn 0.3587 -0.4400 0.8232
vn 0.3587 -0.2710 0.8932
vn 0.3587 -0.0915 0.9289
vn 0.3587 0.0915 0.9289
vn 0.3587 0.2710 0.8932
vn 0.3587 0.4400 0.8232
vn 0.3587 0.5922 0.7216
vn 0.3587 0.7216 0.5922
vn 0.3587 0.8232 0.4400
vn 0.4123 0.5944 0.6904
vn 0.6126 0.7866 0.0775
vn 0.6126 0.7866 -0.0775
vn 0.4123 0.5944 -0.6904
vn 0.3587 0.8232 -0.4400
vn 0.3587 0.7216 -0.5922
vn 0.3587 0.5922 -0.7216
vn 0.3587 0.4400 -0.8232
vn 1.0000 -0.0000 -0.0000
vn 0.3587 0.2710 -0.8932
vn 0.3587 0.0915 -0.9289
vn -1.0000 -0.0000 -0.0000
vn 0.0289 0.0980 -0.9948
vn 0.0289 0.2902 -0.9565
vn 0.0289 0.4712 -0.8816
vn 0.0289 0.6341 -0.7727
vn 0.0289 0.7727 -0.6341
vn 0.0289 0.8816 -0.4712
vn 0.0289 0.9565 -0.2902
vn 0.0289 0.9948 -0.0980
vn 0.0289 0.9948 0.0980
vn 0.0289 0.9565 0.2902
vn 0.0289 0.8816 0.4712
vn 0.0289 0.7727 0.6341
vn 0.0289 0.6341 0.7727
vn 0.0289 0.4712 0.8816
vn 0.0289 0.2902 0.9565
vn 0.0289 0.0980 0.9948
vn 0.0289 -0.0980 0.9948
vn 0.0289 -0.2902 0.9565
vn 0.0289 -0.4712 0.8816
vn 0.0289 -0.6341 0.7727
vn 0.0289 -0.7727 0.6341
vn 0.0289 -0.8816 0.4712
vn 0.0289 -0.9565 0.2902
vn 0.0289 -0.9948 0.0980
vn 0.0289 -0.9948 -0.0980
vn 0.0289 -0.9565 -0.2902
vn 0.0289 -0.8816 -0.4712
vn 0.0289 -0.7727 -0.6341
vn 0.0289 -0.6341 -0.7727
vn 0.0289 -0.4712 -0.8816
vn 0.0289 -0.2902 -0.9565
vn 0.0289 -0.0980 -0.9948
vn -0.2917 0.0938 -0.9519
vn -0.2917 0.2777 -0.9153
vn -0.2917 0.4509 -0.8436
vn -0.2917 0.6068 -0.7394
vn -0.2917 0.7394 -0.6068
vn -0.2917 0.8436 -0.4509
vn -0.3380 0.6140 -0.7132
vn -0.5239 0.8477 -0.0835
vn -0.5239 0.8477 0.0835
vn -0.3380 0.6140 0.7132
vn -0.2917 0.8436 0.4509
vn -0.2917 0.7394 0.6068
vn -0.2917 0.6068 0.7394
vn -0.2917 0.4509 0.8436
vn -0.2917 0.2777 0.9153
vn -0.2917 0.0938 0.9519
vn -0.2917 -0.0938 0.9519
vn -0.2917 -0.2777 0.9153
vn -0.2917 -0.4509 0.8436
vn -0.2917 -0.6068 0.7394
vn -0.2917 -0.7394 0.6068
vn -0.2917 -0.8436 0.4509
vn -0.2917 -0.9153 0.2777
vn -0.2917 -0.9519 0.0938
vn -0.2917 -0.9519 -0.0938
vn -0.2917 -0.9153 -0.2777
vn -0.2917 -0.8436 -0.4509
vn -0.2917 -0.7394 -0.6068
vn -0.2917 -0.6068 -0.7394
vn -0.2917 -0.4509 -0.8436
vn -0.2917 -0.2777 -0.9153
vn -0.2917 -0.0938 -0.9519
vn -0.0243 -0.0980 -0.9949
vn -0.0243 -0.2902 -0.9567
vn -0.0243 -0.4713 -0.8817
vn -0.0243 -0.6342 -0.7728
vn -0.0243 -0.7728 -0.6342
vn -0.0243 -0.8817 -0.4713
vn -0.0243 -0.9567 -0.2902
vn -0.0243 -0.9949 -0.0980
vn -0.0243 -0.9949 0.0980
vn -0.0243 -0.9567 0.2902
vn -0.0243 -0.8817 0.4713
vn -0.0243 -0.7728 0.6342
vn -0.0243 -0.6342 0.7728
vn -0.0243 -0.4713 0.8817
vn -0.0243 -0.2902 0.9567
vn -0.0243 -0.0980 0.9949
vn -0.0243 0.0980 0.9949
vn -0.0243 0.2902 0.9567
vn -0.0243 0.4713 0.8817
vn -0.0243 0.6342 0.7728
vn -0.0243 0.7728 0.6342
vn -0.0243 0.8817 0.4713
vn -0.0243 0.9567 0.2902
vn -0.0243 0.9949 0.0980
vn -0.0243 0.9949 -0.0980
vn -0.0243 0.9567 -0.2902
vn -0.0243 0.8817 -0.4713
vn -0.0243 0.7728 -0.6342
vn -0.0243 0.6342 -0.7728
vn -0.0243 0.4713 -0.8817
vn -0.0243 0.2902 -0.9567
vn -0.0243 0.0980 -0.9949
vt 1.000000 0.962754
vt 1.000000 1.000000
vt 0.968750 1.000000
vt 0.968750 0.962754
vt 0.937500 1.000000
vt 0.937500 0.962754
vt 0.906250 1.000000
vt 0.906250 0.962754
vt 0.875000 1.000000
vt 0.875000 0.962754
vt 0.843750 1.000000
vt 0.843750 0.962754
vt 0.812500 1.000000
vt 0.812500 0.962754
vt 0.781250 1.000000
vt 0.781250 0.962754
vt 0.750000 1.000000
vt 0.750000 0.962754
vt 0.718750 1.000000
vt 0.718750 0.962754
vt 0.687500 1.000000
vt 0.687500 0.962754
vt 0.656250 1.000000
vt 0.656250 0.962754
vt 0.625000 1.000000
vt 0.625000 0.962754
vt 0.593750 1.000000
vt 0.593750 0.962754
vt 0.562500 1.000000
vt 0.562500 0.962754
vt 0.531250 1.000000
vt 0.531250 0.962754
vt 0.500000 1.000000
vt 0.500000 0.962754
vt 0.468750 1.000000
vt 0.468750 0.962754
vt 0.437500 1.000000
vt 0.437500 0.962754
vt 0.406250 1.000000
vt 0.406250 0.962754
vt 0.375000 1.000000
vt 0.375000 0.962754
vt 0.343750 1.000000
vt 0.343750 0.962754
vt 0.312500 1.000000
vt 0.312500 0.962754
vt 0.281250 1.000000
vt 0.281250 0.962754
vt 0.250000 1.000000
vt 0.250000 0.962754
vt 0.218750 1.000000
vt 0.218750 0.962754
vt 0.187500 1.000000
vt 0.187500 0.962754
vt 0.156250 1.000000
vt 0.156250 0.962754
vt 0.125000 1.000000
vt 0.125000 0.962754
vt 0.093750 1.000000
vt 0.093750 0.962754
vt 0.062500 1.000000
vt 0.062500 0.962754
vt 0.296822 0.485388
vt 0.250000 0.490000
vt 0.203178 0.485388
vt 0.158156 0.471731
vt 0.116663 0.449553
vt 0.080294 0.419706
vt 0.050447 0.383337
vt 0.028269 0.341844
vt 0.014612 0.296822
vt 0.010000 0.250000
vt 0.014612 0.203178
vt 0.028269 0.158156
vt 0.050447 0.116663
vt 0.080294 0.080294
vt 0.116663 0.050447
vt 0.158156 0.028269
vt 0.203178 0.014612
vt 0.250000 0.010000
vt 0.296822 0.014612
vt 0.341844 0.028269
vt 0.383337 0.050447
vt 0.419706 0.080294
vt 0.449553 0.116663
vt 0.471731 0.158156
vt 0.485388 0.203178
vt 0.490000 0.250000
vt 0.485388 0.296822
vt 0.471731 0.341844
vt 0.449553 0.383337
vt 0.419706 0.419706
vt 0.383337 0.449553
vt 0.341844 0.471731
vt 0.031250 1.000000
vt 0.031250 0.962754
vt 0.000000 1.000000
vt 0.000000 0.962754
vt 0.750000 0.490000
vt 0.796822 0.485388
vt 0.841844 0.471731
vt 0.883337 0.449553
vt 0.919706 0.419706
vt 0.949553 0.383337
vt 0.971731 0.341844
vt 0.985388 0.296822
vt 0.990000 0.250000
vt 0.985388 0.203178
vt 0.971731 0.158156
vt 0.949553 0.116663
vt 0.919706 0.080294
vt 0.883337 0.050447
vt 0.841844 0.028269
vt 0.796822 0.014612
vt 0.750000 0.010000
vt 0.703178 0.014612
vt 0.658156 0.028269
vt 0.616663 0.050447
vt 0.580294 0.080294
vt 0.550447 0.116663
vt 0.528269 0.158156
vt 0.514612 0.203178
vt 0.510000 0.250000
vt 0.514612 0.296822
vt 0.528269 0.341844
vt 0.550447 0.383337
vt 0.580294 0.419706
vt 0.616663 0.449553
vt 0.658156 0.471731
vt 0.703178 0.485388
vt 0.031250 0.726052
vt 0.031250 0.915823
vt 0.000000 0.915823
vt 0.000000 0.726052
vt 0.062500 0.726052
vt 0.062500 0.915823
vt 0.093750 0.726052
vt 0.093750 0.915823
vt 0.125000 0.726052
vt 0.125000 0.915823
vt 0.156250 0.726052
vt 0.156250 0.915823
vt 0.187500 0.726052
vt 0.187500 0.915823
vt 0.218750 0.726052
vt 0.218750 0.915823
vt 0.250000 0.726052
vt 0.250000 0.915823
vt 0.281250 0.726052
vt 0.281250 0.915823
vt 0.312500 0.726052
vt 0.312500 0.915823
vt 0.343750 0.726052
vt 0.343750 0.915823
vt 0.375000 0.726052
vt 0.375000 0.915823
vt 0.406250 0.726052
vt 0.406250 0.915823
vt 0.437500 0.726052
vt 0.437500 0.915823
vt 0.468750 0.726052
vt 0.468750 0.915823
vt 0.500000 0.726052
vt 0.500000 0.915823
vt 0.531250 0.726052
vt 0.531250 0.915823
vt 0.562500 0.726052
vt 0.562500 0.915823
vt 0.593750 0.726052
vt 0.593750 0.915823
vt 0.625000 0.726052
vt 0.625000 0.915823
vt 0.656250 0.726052
vt 0.656250 0.915823
vt 0.687500 0.726052
vt 0.687500 0.915823
vt 0.718750 0.726052
vt 0.718750 0.915823
vt 0.750000 0.726052
vt 0.750000 0.915823
vt 0.781250 0.726052
vt 0.781250 0.915823
vt 0.812500 0.726052
vt 0.812500 0.915823
vt 0.843750 0.726052
vt 0.843750 0.915823
vt 0.875000 0.726052
vt 0.875000 0.915823
vt 0.906250 0.726052
vt 0.906250 0.915823
vt 0.937500 0.726052
vt 0.937500 0.915823
vt 0.968750 0.726052
vt 0.968750 0.915823
vt 1.000000 0.726052
vt 1.000000 0.915823
vt 1.000000 0.500000
vt 0.968750 0.500000
vt 0.937500 0.500000
vt 0.906250 0.500000
vt 0.875000 0.500000
vt 0.843750 0.500000
vt 0.812500 0.500000
vt 0.781250 0.500000
vt 0.750000 0.500000
vt 0.718750 0.500000
vt 0.687500 0.500000
vt 0.656250 0.500000
vt 0.625000 0.500000
vt 0.593750 0.500000
vt 0.562500 0.500000
vt 0.531250 0.500000
vt 0.500000 0.500000
vt 0.468750 0.500000
vt 0.437500 0.500000
vt 0.406250 0.500000
vt 0.375000 0.500000
vt 0.343750 0.500000
vt 0.312500 0.500000
vt 0.281250 0.500000
vt 0.250000 0.500000
vt 0.218750 0.500000
vt 0.187500 0.500000
vt 0.156250 0.500000
vt 0.125000 0.500000
vt 0.093750 0.500000
vt 0.062500 0.500000
vt 0.031250 0.500000
vt 0.000000 0.500000
s 0
f 97/1/1 2/2/1 4/3/1 98/4/1
f 98/4/2 4/3/2 6/5/2 99/6/2
f 99/6/3 6/5/3 8/7/3 100/8/3
f 100/8/4 8/7/4 10/9/4 101/10/4
f 101/10/5 10/9/5 12/11/5 102/12/5
f 102/12/6 12/11/6 14/13/6 103/14/6
f 103/14/7 14/13/7 16/15/7 104/16/7
f 104/16/8 16/15/8 18/17/8 105/18/8
f 105/18/9 18/17/9 20/19/9 106/20/9
f 106/20/10 20/19/10 22/21/10 107/22/10
f 107/22/11 22/21/11 24/23/11 108/24/11
f 108/24/12 24/23/12 26/25/12 109/26/12
f 109/26/13 26/25/13 28/27/13 110/28/13
f 110/28/14 28/27/14 30/29/14 111/30/14
f 111/30/15 30/29/15 32/31/15 112/32/15
f 112/32/16 32/31/16 34/33/16 113/34/16
f 113/34/17 34/33/17 36/35/17 114/36/17
f 114/36/18 36/35/18 38/37/18 115/38/18
f 115/38/19 38/37/19 40/39/19 116/40/19
f 116/40/20 40/39/20 42/41/20 117/42/20
f 117/42/21 42/41/21 44/43/21 118/44/21
f 118/44/22 44/43/22 46/45/22 119/46/22
f 119/46/23 46/45/23 48/47/23 120/48/23
f 120/48/24 48/47/24 50/49/24 121/50/24
f 121/50/25 50/49/25 52/51/25 122/52/25
f 122/52/26 52/51/26 54/53/26 123/54/26
f 123/54/27 54/53/27 56/55/27 124/56/27
f 124/56/28 56/55/28 58/57/28 125/58/28
f 125/58/29 58/57/29 60/59/29 126/60/29
f 126/60/30 60/59/30 62/61/30 127/62/30
f 4/63/31 2/64/31 64/65/31 62/66/31 60/67/31 58/68/31 56/69/31 54/70/31 52/71/31 50/72/31 48/73/31 46/74/31 44/75/31 42/76/31 40/77/31 38/78/31 36/79/31 34/80/31 32/81/31 30/82/31 28/83/31 26/84/31 24/85/31 22/86/31 20/87/31 18/88/31 16/89/31 14/90/31 12/91/31 10/92/31 8/93/31 6/94/31
f 127/62/32 62/61/32 64/95/32 128/96/32
f 128/96/33 64/95/33 2/97/33 97/98/33
f 1/99/34 3/100/34 5/101/34 7/102/34 9/103/34 11/104/34 13/105/34 15/106/34 17/107/34 19/108/34 21/109/34 23/110/34 25/111/34 27/112/34 29/113/34 31/114/34 33/115/34 35/116/34 37/117/34 39/118/34 41/119/34 43/120/34 45/121/34 47/122/34 49/123/34 51/124/34 53/125/34 55/126/34 57/127/34 59/128/34 61/129/34 63/130/34
f 159/131/35 96/132/35 65/133/35 160/134/35
f 158/135/36 95/136/36 96/132/36 159/131/36
f 157/137/37 94/138/37 95/136/37 158/135/37
f 156/139/38 93/140/38 94/138/38 157/137/38
f 155/141/39 92/142/39 93/140/39 156/139/39
f 154/143/40 91/144/40 92/142/40 155/141/40
f 153/145/41 90/146/41 91/144/41 154/143/41
f 152/147/42 89/148/42 90/146/42 153/145/42
f 151/149/43 88/150/43 89/148/43 152/147/43
f 150/151/44 87/152/44 88/150/44 151/149/44
f 149/153/45 86/154/45 87/152/45 150/151/45
f 148/155/46 85/156/46 86/154/46 149/153/46
f 147/157/47 84/158/47 85/156/47 148/155/47
f 146/159/48 83/160/48 84/158/48 147/157/48
f 145/161/49 82/162/49 83/160/49 146/159/49
f 144/163/50 81/164/50 82/162/50 145/161/50
f 143/165/51 80/166/51 81/164/51 144/163/51
f 142/167/52 79/168/52 80/166/52 143/165/52
f 141/169/53 78/170/53 79/168/53 142/167/53
f 140/171/54 77/172/54 78/170/54 141/169/54
f 139/173/55 76/174/55 77/172/55 140/171/55
f 138/175/56 75/176/56 76/174/56 139/173/56
f 137/177/57 74/178/57 75/176/57 138/175/57
f 136/179/58 73/180/58 74/178/58 137/177/58
f 135/181/59 72/182/59 73/180/59 136/179/59
f 134/183/60 71/184/60 72/182/60 135/181/60
f 133/185/61 70/186/61 71/184/61 134/183/61
f 132/187/62 69/188/62 70/186/62 133/185/62
f 131/189/63 68/190/63 69/188/63 132/187/63
f 130/191/64 67/192/64 68/190/64 131/189/64
f 129/193/65 66/194/65 67/192/65 130/191/65
f 160/195/66 65/196/66 66/194/66 129/193/66
f 96/132/67 128/96/67 97/98/67 65/133/67
f 95/136/68 127/62/68 128/96/68 96/132/68
f 94/138/69 126/60/69 127/62/69 95/136/69
f 93/140/70 125/58/70 126/60/70 94/138/70
f 92/142/71 124/56/71 125/58/71 93/140/71
f 91/144/72 123/54/72 124/56/72 92/142/72
f 90/146/73 122/52/73 123/54/73 91/144/73
f 89/148/74 121/50/74 122/52/74 90/146/74
f 88/150/75 120/48/75 121/50/75 89/148/75
f 87/152/76 119/46/76 120/48/76 88/150/76
f 86/154/77 118/44/77 119/46/77 87/152/77
f 85/156/78 117/42/78 118/44/78 86/154/78
f 84/158/79 116/40/79 117/42/79 85/156/79
f 83/160/80 115/38/80 116/40/80 84/158/80
f 82/162/81 114/36/81 115/38/81 83/160/81
f 81/164/82 113/34/82 114/36/82 82/162/82
f 80/166/83 112/32/83 113/34/83 81/164/83
f 79/168/84 111/30/84 112/32/84 80/166/84
f 78/170/85 110/28/85 111/30/85 79/168/85
f 77/172/86 109/26/86 110/28/86 78/170/86
f 76/174/87 108/24/87 109/26/87 77/172/87
f 75/176/88 107/22/88 108/24/88 76/174/88
f 74/178/89 106/20/89 107/22/89 75/176/89
f 73/180/90 105/18/90 106/20/90 74/178/90
f 72/182/91 104/16/91 105/18/91 73/180/91
f 71/184/92 103/14/92 104/16/92 72/182/92
f 70/186/93 102/12/93 103/14/93 71/184/93
f 69/188/94 101/10/94 102/12/94 70/186/94
f 68/190/95 100/8/95 101/10/95 69/188/95
f 67/192/96 99/6/96 100/8/96 68/190/96
f 66/194/97 98/4/97 99/6/97 67/192/97
f 65/196/98 97/1/98 98/4/98 66/194/98
f 1/197/99 160/195/99 129/193/99 3/198/99
f 3/198/100 129/193/100 130/191/100 5/199/100
f 5/199/101 130/191/101 131/189/101 7/200/101
f 7/200/102 131/189/102 132/187/102 9/201/102
f 9/201/103 132/187/103 133/185/103 11/202/103
f 11/202/104 133/185/104 134/183/104 13/203/104
f 13/203/105 134/183/105 135/181/105 15/204/105
f 15/204/106 135/181/106 136/179/106 17/205/106
f 17/205/107 136/179/107 137/177/107 19/206/107
f 19/206/108 137/177/108 138/175/108 21/207/108
f 21/207/109 138/175/109 139/173/109 23/208/109
f 23/208/110 139/173/110 140/171/110 25/209/110
f 25/209/111 140/171/111 141/169/111 27/210/111
f 27/210/112 141/169/112 142/167/112 29/211/112
f 29/211/113 142/167/113 143/165/113 31/212/113
f 31/212/114 143/165/114 144/163/114 33/213/114
f 33/213/115 144/163/115 145/161/115 35/214/115
f 35/214/116 145/161/116 146/159/116 37/215/116
f 37/215/117 146/159/117 147/157/117 39/216/117
f 39/216/118 147/157/118 148/155/118 41/217/118
f 41/217/119 148/155/119 149/153/119 43/218/119
f 43/218/120 149/153/120 150/151/120 45/219/120
f 45/219/121 150/151/121 151/149/121 47/220/121
f 47/220/122 151/149/122 152/147/122 49/221/122
f 49/221/123 152/147/123 153/145/123 51/222/123
f 51/222/124 153/145/124 154/143/124 53/223/124
f 53/223/125 154/143/125 155/141/125 55/224/125
f 55/224/126 155/141/126 156/139/126 57/225/126
f 57/225/127 156/139/127 157/137/127 59/226/127
f 59/226/128 157/137/128 158/135/128 61/227/128
f 61/227/129 158/135/129 159/131/129 63/228/129
f 63/228/130 159/131/130 160/134/130 1/229/130
o Cube
v -1.088131 1.116954 0.432390
v -1.088131 2.898547 0.432390
v -1.088131 1.116954 -0.432390
v -1.088131 2.898547 -0.432390
v 2.817042 1.116954 0.432390
v 3.324813 2.898547 0.432390
v 2.817042 1.116954 -0.432390
v 3.324813 2.898547 -0.432390
v -0.499173 1.623241 -0.838617
v -1.751761 1.623241 -0.838617
v -1.751761 3.170411 -0.838617
v -0.499173 3.170410 -0.838617
v -1.751761 3.006804 -0.822503
v -0.499173 3.006804 -0.822503
v -1.751761 2.849486 -0.774781
v -0.499173 2.849486 -0.774781
v -1.751761 2.704500 -0.697284
v -0.499173 2.704500 -0.697284
v -1.751761 2.577419 -0.592991
v -0.499173 2.577419 -0.592991
v -1.751761 2.473126 -0.465910
v -0.499173 2.473126 -0.465910
v -1.751761 2.395630 -0.320925
v -0.499173 2.395630 -0.320925
v -1.751761 2.347908 -0.163606
v -0.499173 2.347908 -0.163606
v -1.751761 2.331794 0.000000
v -0.499173 2.331794 0.000000
v -1.751761 2.347908 0.163606
v -0.499173 2.347908 0.163606
v -1.751761 2.395630 0.320925
v -0.499173 2.395630 0.320925
v -1.751761 2.473126 0.465910
v -0.499173 2.473126 0.465910
v -1.751761 2.577419 0.592991
v -0.499173 2.577419 0.592991
v -1.751761 2.704500 0.697284
v -0.499173 2.704500 0.697284
v -1.751761 2.849486 0.774781
v -0.499173 2.849486 0.774781
v -1.751761 3.006804 0.822503
v -0.499173 3.006804 0.822503
v -1.751761 3.170411 0.838617
v -0.499173 3.170410 0.838617
v -1.751761 3.334016 0.822503
v -0.499173 3.334016 0.822503
v -1.751761 3.491335 0.774781
v -0.499173 3.491335 0.774781
v -1.751761 3.636321 0.697284
v -0.499173 3.636321 0.697284
v -1.751761 3.763402 0.592991
v -0.499173 3.763402 0.592991
v -1.751761 3.867695 0.465910
v -0.499173 3.867695 0.465910
v -1.751761 3.945191 0.320925
v -0.499173 3.945191 0.320925
v -1.751761 3.992913 0.163606
v -0.499173 3.992913 0.163606
v -1.751761 4.009027 0.000000
v -0.499173 4.009027 0.000000
v -1.751761 3.992913 -0.163606
v -0.499173 3.992913 -0.163606
v -1.751761 3.945191 -0.320925
v -0.499173 3.945191 -0.320925
v -1.751761 3.867695 -0.465910
v -0.499173 3.867695 -0.465910
v -1.751761 3.763402 -0.592991
v -0.499173 3.763402 -0.592991
v -1.751761 3.636321 -0.697284
v -0.499173 3.636321 -0.697284
v -1.751761 3.491335 -0.774781
v -0.499173 3.491335 -0.774781
v -1.751761 3.334016 -0.822503
v -0.499173 3.334016 -0.822503
v -1.751761 1.381521 -0.822503
v -0.499173 1.381521 -0.822503
v -1.751761 1.149089 -0.774781
v -0.499173 1.149089 -0.774781
v -1.751761 0.934879 -0.697284
v -0.499173 0.934879 -0.697284
v -1.751761 0.747122 -0.592991
v -0.499173 0.747122 -0.592991
v -1.751761 0.593034 -0.465910
v -0.499173 0.593034 -0.465910
v -1.751761 0.478536 -0.320925
v -0.499173 0.478536 -0.320925
v -1.751761 0.408029 -0.163606
v -0.499173 0.408029 -0.163606
v -1.751761 0.384221 0.000000
v -0.499173 0.384221 0.000000
v -1.751761 0.408029 0.163606
v -0.499173 0.408029 0.163606
v -1.751761 0.478536 0.320925
v -0.499173 0.478536 0.320925
v -1.751761 0.593034 0.465910
v -0.499173 0.593034 0.465910
v -1.751761 0.747122 0.592991
v -0.499173 0.747122 0.592991
v -1.751761 0.934879 0.697284
v -0.499173 0.934879 0.697284
v -1.751761 1.149089 0.774781
v -0.499173 1.149089 0.774781
v -1.751761 1.381521 0.822503
v -0.499173 1.381521 0.822503
v -1.751761 1.623241 0.838617
v -0.499173 1.623241 0.838617
v -1.751761 1.864962 0.822503
v -0.499173 1.864962 0.822503
v -1.751761 2.097394 0.774781
v -0.499173 2.097393 0.774781
v -1.751761 2.311604 0.697284
v -0.499173 2.311604 0.697284
v -1.751761 2.499361 0.592991
v -0.499173 2.499360 0.592991
v -1.751761 2.653449 0.465910
v -0.499173 2.653448 0.465910
v -1.751761 2.767946 0.320925
v -0.499173 2.767946 0.320925
v -1.751761 2.838453 0.163606
v -0.499173 2.838453 0.163606
v -1.751761 2.862261 0.000000
v -0.499173 2.862261 0.000000
v -1.751761 2.838453 -0.163606
v -0.499173 2.838453 -0.163606
v -1.751761 2.767946 -0.320925
v -0.499173 2.767946 -0.320925
v -1.751761 2.653449 -0.465910
v -0.499173 2.653448 -0.465910
v -1.751761 2.499361 -0.592991
v -0.499173 2.499360 -0.592991
v -1.751761 2.311604 -0.697284
v -0.499173 2.311604 -0.697284
v -1.751761 2.097394 -0.774781
v -0.499173 2.097393 -0.774781
v -1.751761 1.864962 -0.822503
v -0.499173 1.864962 -0.822503
vn -1.0000 -0.0000 -0.0000
vn -0.0000 -0.0000 -1.0000
vn 0.9617 -0.2741 -0.0000
vn -0.0000 -0.0000 1.0000
vn -0.0000 -1.0000 -0.0000
vn -0.0000 1.0000 -0.0000
vn 1.0000 -0.0000 -0.0000
vn -0.0000 -0.0980 -0.9952
vn -0.0000 0.3402 -0.9404
vn -0.0000 -0.2903 -0.9569
vn -0.0000 0.4856 -0.8742
vn -0.0000 -0.4714 -0.8819
vn -0.0000 0.6363 -0.7715
vn -0.0000 -0.6344 -0.7730
vn -0.0000 0.7848 -0.6198
vn -0.0000 -0.7730 -0.6344
vn -0.0000 0.9125 -0.4090
vn -0.0000 -0.8819 -0.4714
vn -0.0000 0.9896 -0.1440
vn -0.0000 -0.9569 -0.2903
vn -0.0000 0.9896 0.1440
vn -0.0000 -0.9952 -0.0980
vn -0.0000 0.9125 0.4090
vn -0.0000 -0.9952 0.0980
vn -0.0000 0.7848 0.6198
vn -0.0000 -0.9569 0.2903
vn -0.0000 0.6363 0.7715
vn -0.0000 -0.8819 0.4714
vn -0.0000 0.4856 0.8742
vn -0.0000 -0.7730 0.6344
vn -0.0000 0.3402 0.9404
vn -0.0000 -0.6344 0.7730
vn -0.0000 0.2011 0.9796
vn -0.0000 -0.4714 0.8819
vn -0.0000 0.0665 0.9978
vn -0.0000 -0.2903 0.9569
vn -0.0000 -0.0665 0.9978
vn -0.0000 -0.0980 0.9952
vn -0.0000 -0.2011 0.9796
vn -0.0000 0.0980 0.9952
vn -0.0000 -0.3402 0.9404
vn -0.0000 0.2903 0.9569
vn -0.0000 -0.4856 0.8742
vn -0.0000 0.4714 0.8819
vn -0.0000 -0.6363 0.7715
vn -0.0000 0.6344 0.7730
vn -0.0000 -0.7848 0.6198
vn -0.0000 0.7730 0.6344
vn -0.0000 -0.9125 0.4090
vn -0.0000 0.8819 0.4714
vn -0.0000 -0.9896 0.1440
vn -0.0000 0.9569 0.2903
vn -0.0000 -0.9896 -0.1440
vn -0.0000 0.9952 0.0980
vn -0.0000 -0.9125 -0.4090
vn -0.0000 0.9952 -0.0980
vn -0.0000 -0.7848 -0.6198
vn -0.0000 0.9569 -0.2903
vn -0.0000 -0.6363 -0.7715
vn -0.0000 0.8819 -0.4714
vn -0.0000 -0.4856 -0.8742
vn -0.0000 0.7730 -0.6344
vn -0.0000 -0.3402 -0.9404
vn -0.0000 0.6344 -0.7730
vn -0.0000 0.0665 -0.9978
vn -0.0000 -0.2011 -0.9796
vn -0.0000 0.4714 -0.8819
vn -0.0000 -0.0665 -0.9978
vn -0.0000 0.2903 -0.9569
vn -0.0000 0.2011 -0.9796
vn -0.0000 0.0980 -0.9952
vt 0.375000 0.000000
vt 0.625000 0.000000
vt 0.625000 0.250000
vt 0.375000 0.250000
vt 0.625000 0.500000
vt 0.375000 0.500000
vt 0.625000 0.750000
vt 0.375000 0.750000
vt 0.625000 1.000000
vt 0.375000 1.000000
vt 0.125000 0.500000
vt 0.125000 0.750000
vt 0.875000 0.500000
vt 0.875000 0.750000
vt 0.296822 0.485388
vt 0.250000 0.490000
vt 0.203178 0.485388
vt 0.158156 0.471731
vt 0.116663 0.449553
vt 0.080294 0.419706
vt 0.050447 0.383337
vt 0.028269 0.341844
vt 0.014612 0.296822
vt 0.010000 0.250000
vt 0.014612 0.203178
vt 0.028269 0.158156
vt 0.050447 0.116663
vt 0.080294 0.080294
vt 0.116663 0.050447
vt 0.158156 0.028269
vt 0.203178 0.014612
vt 0.250000 0.010000
vt 0.296822 0.014612
vt 0.341844 0.028269
vt 0.383337 0.050447
vt 0.419706 0.080294
vt 0.449553 0.116663
vt 0.471731 0.158156
vt 0.485388 0.203178
vt 0.490000 0.250000
vt 0.485388 0.296822
vt 0.471731 0.341844
vt 0.449553 0.383337
vt 0.419706 0.419706
vt 0.383337 0.449553
vt 0.341844 0.471731
vt 1.000000 0.500000
vt 1.000000 1.000000
vt 0.968750 1.000000
vt 0.968750 0.500000
vt 0.093750 0.500000
vt 0.093750 1.000000
vt 0.062500 1.000000
vt 0.062500 0.500000
vt 0.937500 1.000000
vt 0.937500 0.500000
vt 0.125000 1.000000
vt 0.906250 1.000000
vt 0.906250 0.500000
vt 0.156250 0.500000
vt 0.156250 1.000000
vt 0.875000 1.000000
vt 0.187500 0.500000
vt 0.187500 1.000000
vt 0.843750 1.000000
vt 0.843750 0.500000
vt 0.218750 0.500000
vt 0.218750 1.000000
vt 0.812500 1.000000
vt 0.812500 0.500000
vt 0.250000 0.500000
vt 0.250000 1.000000
vt 0.781250 1.000000
vt 0.781250 0.500000
vt 0.281250 0.500000
vt 0.281250 1.000000
vt 0.750000 1.000000
vt 0.750000 0.500000
vt 0.312500 0.500000
vt 0.312500 1.000000
vt 0.718750 1.000000
vt 0.718750 0.500000
vt 0.343750 0.500000
vt 0.343750 1.000000
vt 0.687500 1.000000
vt 0.687500 0.500000
vt 0.656250 1.000000
vt 0.656250 0.500000
vt 0.406250 0.500000
vt 0.406250 1.000000
vt 0.437500 0.500000
vt 0.437500 1.000000
vt 0.593750 1.000000
vt 0.593750 0.500000
vt 0.468750 0.500000
vt 0.468750 1.000000
vt 0.562500 1.000000
vt 0.562500 0.500000
vt 0.500000 0.500000
vt 0.500000 1.000000
vt 0.531250 1.000000
vt 0.531250 0.500000
vt 0.750000 0.490000
vt 0.796822 0.485388
vt 0.841844 0.471731
vt 0.883337 0.449553
vt 0.919706 0.419706
vt 0.949553 0.383337
vt 0.971731 0.341844
vt 0.985388 0.296822
vt 0.990000 0.250000
vt 0.985388 0.203178
vt 0.971731 0.158156
vt 0.949553 0.116663
vt 0.919706 0.080294
vt 0.883337 0.050447
vt 0.841844 0.028269
vt 0.796822 0.014612
vt 0.750000 0.010000
vt 0.703178 0.014612
vt 0.658156 0.028269
vt 0.616663 0.050447
vt 0.580294 0.080294
vt 0.550447 0.116663
vt 0.528269 0.158156
vt 0.514612 0.203178
vt 0.510000 0.250000
vt 0.514612 0.296822
vt 0.528269 0.341844
vt 0.550447 0.383337
vt 0.580294 0.419706
vt 0.616663 0.449553
vt 0.658156 0.471731
vt 0.703178 0.485388
vt 0.031250 0.500000
vt 0.031250 1.000000
vt 0.000000 1.000000
vt 0.000000 0.500000
s 0
f 161/230/131 162/231/131 164/232/131 163/233/131
f 163/233/132 164/232/132 168/234/132 167/235/132
f 167/235/133 168/234/133 166/236/133 165/237/133
f 165/237/134 166/236/134 162/238/134 161/239/134
f 163/240/135 167/235/135 165/237/135 161/241/135
f 168/234/136 164/242/136 162/243/136 166/236/136
f 236/244/137 169/245/137 296/246/137 294/247/137 292/248/137 290/249/137 288/250/137 286/251/137 284/252/137 282/253/137 280/254/137 278/255/137 276/256/137 274/257/137 272/258/137 270/259/137 268/260/137 266/261/137 264/262/137 262/263/137 260/264/137 258/265/137 256/266/137 254/267/137 252/268/137 250/269/137 248/270/137 246/271/137 244/272/137 242/273/137 240/274/137 238/275/137
f 171/276/138 172/277/138 174/278/138 173/279/138
f 291/280/139 292/281/139 294/282/139 293/283/139
f 173/279/140 174/278/140 176/284/140 175/285/140
f 289/240/141 290/286/141 292/281/141 291/280/141
f 175/285/142 176/284/142 178/287/142 177/288/142
f 287/289/143 288/290/143 290/286/143 289/240/143
f 177/288/144 178/287/144 180/291/144 179/242/144
f 285/292/145 286/293/145 288/290/145 287/289/145
f 179/242/146 180/291/146 182/294/146 181/295/146
f 283/296/147 284/297/147 286/293/147 285/292/147
f 181/295/148 182/294/148 184/298/148 183/299/148
f 281/300/149 282/301/149 284/297/149 283/296/149
f 183/299/150 184/298/150 186/302/150 185/303/150
f 279/304/151 280/305/151 282/301/151 281/300/151
f 185/303/152 186/302/152 188/306/152 187/307/152
f 277/308/153 278/309/153 280/305/153 279/304/153
f 187/307/154 188/306/154 190/310/154 189/311/154
f 275/312/155 276/313/155 278/309/155 277/308/155
f 189/311/156 190/310/156 192/314/156 191/315/156
f 273/235/157 274/239/157 276/313/157 275/312/157
f 191/315/158 192/314/158 194/316/158 193/317/158
f 271/318/159 272/319/159 274/239/159 273/235/159
f 193/317/160 194/316/160 196/238/160 195/234/160
f 269/320/161 270/321/161 272/319/161 271/318/161
f 195/234/162 196/238/162 198/322/162 197/323/162
f 267/324/163 268/325/163 270/321/163 269/320/163
f 197/323/164 198/322/164 200/326/164 199/327/164
f 265/328/165 266/329/165 268/325/165 267/324/165
f 199/327/166 200/326/166 202/330/166 201/331/166
f 263/331/167 264/330/167 266/329/167 265/328/167
f 201/331/168 202/330/168 204/329/168 203/328/168
f 261/327/169 262/326/169 264/330/169 263/331/169
f 203/328/170 204/329/170 206/325/170 205/324/170
f 259/323/171 260/322/171 262/326/171 261/327/171
f 205/324/172 206/325/172 208/321/172 207/320/172
f 257/234/173 258/238/173 260/322/173 259/323/173
f 207/320/174 208/321/174 210/319/174 209/318/174
f 255/317/175 256/316/175 258/238/175 257/234/175
f 209/318/176 210/319/176 212/239/176 211/235/176
f 253/315/177 254/314/177 256/316/177 255/317/177
f 211/235/178 212/239/178 214/313/178 213/312/178
f 251/311/179 252/310/179 254/314/179 253/315/179
f 213/312/180 214/313/180 216/309/180 215/308/180
f 249/307/181 250/306/181 252/310/181 251/311/181
f 215/308/182 216/309/182 218/305/182 217/304/182
f 247/303/183 248/302/183 250/306/183 249/307/183
f 217/304/184 218/305/184 220/301/184 219/300/184
f 245/299/185 246/298/185 248/302/185 247/303/185
f 219/300/186 220/301/186 222/297/186 221/296/186
f 243/295/187 244/294/187 246/298/187 245/299/187
f 221/296/188 222/297/188 224/293/188 223/292/188
f 241/242/189 242/291/189 244/294/189 243/295/189
f 223/292/190 224/293/190 226/290/190 225/289/190
f 239/288/191 240/287/191 242/291/191 241/242/191
f 225/289/192 226/290/192 228/286/192 227/240/192
f 170/332/131 235/333/131 237/334/131 239/335/131 241/336/131 243/337/131 245/338/131 247/339/131 249/340/131 251/341/131 253/342/131 255/343/131 257/344/131 259/345/131 261/346/131 263/347/131 265/348/131 267/349/131 269/350/131 271/351/131 273/352/131 275/353/131 277/354/131 279/355/131 281/356/131 283/357/131 285/358/131 287/359/131 289/360/131 291/361/131 293/362/131 295/363/131
f 237/285/193 238/284/193 240/287/193 239/288/193
f 227/240/194 228/286/194 230/281/194 229/280/194
f 295/364/195 296/365/195 169/366/195 170/367/195
f 235/279/196 236/278/196 238/284/196 237/285/196
f 229/280/197 230/281/197 232/282/197 231/283/197
f 174/244/137 172/245/137 234/246/137 232/247/137 230/248/137 228/249/137 226/250/137 224/251/137 222/252/137 220/253/137 218/254/137 216/255/137 214/256/137 212/257/137 210/258/137 208/259/137 206/260/137 204/261/137 202/262/137 200/263/137 198/264/137 196/265/137 194/266/137 192/267/137 190/268/137 188/269/137 186/270/137 184/271/137 182/272/137 180/273/137 178/274/137 176/275/137
f 170/276/198 169/277/198 236/278/198 235/279/198
f 231/283/199 232/282/199 234/365/199 233/364/199
f 293/283/200 294/282/200 296/365/200 295/364/200
f 233/364/201 234/365/201 172/366/201 171/367/201
f 171/332/131 173/333/131 175/334/131 177/335/131 179/336/131 181/337/131 183/338/131 185/339/131 187/340/131 189/341/131 191/342/131 193/343/131 195/344/131 197/345/131 199/346/131 201/347/131 203/348/131 205/349/131 207/350/131 209/351/131 211/352/131 213/353/131 215/354/131 217/355/131 219/356/131 221/357/131 223/358/131 225/359/131 227/360/131 229/361/131 231/362/131 233/363/131
o Cylinder.001
v -4.998067 2.193553 -1.340608
v -4.510204 2.193553 -1.713445
v -4.998067 1.932014 -1.314848
v -4.510203 1.859277 -1.680522
v -4.998067 1.680525 -1.238560
v -4.510203 1.537846 -1.583017
v -4.998067 1.448752 -1.114675
v -4.510203 1.241614 -1.424678
v -4.998066 1.245601 -0.947953
v -4.510203 0.981965 -1.211589
v -4.998066 1.078879 -0.744802
v -4.510203 0.768876 -0.951939
v -4.998066 0.954993 -0.513028
v -4.510203 0.610537 -0.655707
v -4.998066 0.878705 -0.261540
v -4.510203 0.513032 -0.334277
v -4.998066 0.852946 -0.000000
v -4.510203 0.480108 0.000000
v -4.998066 0.878705 0.261540
v -4.510203 0.513032 0.334277
v -4.998066 0.954993 0.513028
v -4.510203 0.610537 0.655707
v -4.998066 1.078879 0.744802
v -4.510203 0.768876 0.951939
v -4.998066 1.245601 0.947953
v -4.510203 0.981965 1.211589
v -4.998067 1.448752 1.114675
v -4.510203 1.241614 1.424678
v -4.998067 1.680525 1.238560
v -4.510203 1.537846 1.583017
v -4.998067 1.932014 1.314848
v -4.510203 1.859277 1.680522
v -4.998067 2.193553 1.340608
v -4.510204 2.193553 1.713445
v -4.998067 2.455093 1.314848
v -4.510204 2.527830 1.680522
v -4.998067 2.706582 1.238560
v -4.510204 2.849261 1.583017
v -4.998067 2.938355 1.114675
v -4.510204 3.145493 1.424678
v -4.998067 3.141506 0.947953
v -4.510204 3.405142 1.211589
v -4.998067 3.308228 0.744802
v -4.510204 3.618231 0.951939
v -4.998067 3.432113 0.513028
v -4.510204 3.776570 0.655707
v -4.998067 3.508402 0.261540
v -4.510204 3.874075 0.334277
v -4.998067 3.534161 -0.000000
v -4.510204 3.906999 0.000000
v -4.998067 3.508402 -0.261540
v -4.510204 3.874075 -0.334277
v -4.998067 3.432113 -0.513028
v -4.510204 3.776570 -0.655707
v -4.998067 3.308228 -0.744802
v -4.510204 3.618231 -0.951939
v -4.998067 3.141506 -0.947953
v -4.510204 3.405142 -1.211589
v -4.998067 2.938355 -1.114675
v -4.510204 3.145493 -1.424678
v -4.998067 2.706582 -1.238560
v -4.510204 2.849261 -1.583017
v -4.998067 2.455093 -1.314848
v -4.510204 2.527830 -1.680522
vn -0.6054 -0.0780 -0.7921
vn -0.6054 -0.2311 -0.7617
vn -0.6054 -0.3752 -0.7020
vn -0.6054 -0.5049 -0.6153
vn -0.6054 -0.6153 -0.5049
vn -0.6054 -0.7020 -0.3752
vn -0.6054 -0.7617 -0.2311
vn -0.6054 -0.7921 -0.0780
vn -0.6054 -0.7921 0.0780
vn -0.6054 -0.7617 0.2311
vn -0.6054 -0.7020 0.3752
vn -0.6054 -0.6153 0.5049
vn -0.6054 -0.5049 0.6153
vn -0.6054 -0.3752 0.7020
vn -0.6054 -0.2311 0.7617
vn -0.6054 -0.0780 0.7921
vn -0.6054 0.0780 0.7921
vn -0.6054 0.2311 0.7617
vn -0.6054 0.3752 0.7020
vn -0.6054 0.5049 0.6153
vn -0.6054 0.6153 0.5049
vn -0.6054 0.7020 0.3752
vn -0.6054 0.7617 0.2311
vn -0.6054 0.7921 0.0780
vn -0.6054 0.7921 -0.0780
vn -0.6054 0.7617 -0.2311
vn -0.6054 0.7020 -0.3752
vn -0.6054 0.6153 -0.5049
vn -0.6054 0.5049 -0.6153
vn -0.6054 0.3752 -0.7020
vn 1.0000 -0.0000 -0.0000
vn -0.6054 0.2311 -0.7617
vn -0.6054 0.0780 -0.7921
vn -1.0000 -0.0000 -0.0000
vt 1.000000 0.500000
vt 1.000000 1.000000
vt 0.968750 1.000000
vt 0.968750 0.500000
vt 0.937500 1.000000
vt 0.937500 0.500000
vt 0.906250 1.000000
vt 0.906250 0.500000
vt 0.875000 1.000000
vt 0.875000 0.500000
vt 0.843750 1.000000
vt 0.843750 0.500000
vt 0.812500 1.000000
vt 0.812500 0.500000
vt 0.781250 1.000000
vt 0.781250 0.500000
vt 0.750000 1.000000
vt 0.750000 0.500000
vt 0.718750 1.000000
vt 0.718750 0.500000
vt 0.687500 1.000000
vt 0.687500 0.500000
vt 0.656250 1.000000
vt 0.656250 0.500000
vt 0.625000 1.000000
vt 0.625000 0.500000
vt 0.593750 1.000000
vt 0.593750 0.500000
vt 0.562500 1.000000
vt 0.562500 0.500000
vt 0.531250 1.000000
vt 0.531250 0.500000
vt 0.500000 1.000000
vt 0.500000 0.500000
vt 0.468750 1.000000
vt 0.468750 0.500000
vt 0.437500 1.000000
vt 0.437500 0.500000
vt 0.406250 1.000000
vt 0.406250 0.500000
vt 0.375000 1.000000
vt 0.375000 0.500000
vt 0.343750 1.000000
vt 0.343750 0.500000
vt 0.312500 1.000000
vt 0.312500 0.500000
vt 0.281250 1.000000
vt 0.281250 0.500000
vt 0.250000 1.000000
vt 0.250000 0.500000
vt 0.218750 1.000000
vt 0.218750 0.500000
vt 0.187500 1.000000
vt 0.187500 0.500000
vt 0.156250 1.000000
vt 0.156250 0.500000
vt 0.125000 1.000000
vt 0.125000 0.500000
vt 0.093750 1.000000
vt 0.093750 0.500000
vt 0.062500 1.000000
vt 0.062500 0.500000
vt 0.296822 0.485388
vt 0.250000 0.490000
vt 0.203178 0.485388
vt 0.158156 0.471731
vt 0.116663 0.449553
vt 0.080294 0.419706
vt 0.050447 0.383337
vt 0.028269 0.341844
vt 0.014612 0.296822
vt 0.010000 0.250000
vt 0.014612 0.203178
vt 0.028269 0.158156
vt 0.050447 0.116663
vt 0.080294 0.080294
vt 0.116663 0.050447
vt 0.158156 0.028269
vt 0.203178 0.014612
vt 0.250000 0.010000
vt 0.296822 0.014612
vt 0.341844 0.028269
vt 0.383337 0.050447
vt 0.419706 0.080294
vt 0.449553 0.116663
vt 0.471731 0.158156
vt 0.485388 0.203178
vt 0.490000 0.250000
vt 0.485388 0.296822
vt 0.471731 0.341844
vt 0.449553 0.383337
vt 0.419706 0.419706
vt 0.383337 0.449553
vt 0.341844 0.471731
vt 0.031250 1.000000
vt 0.031250 0.500000
vt 0.000000 1.000000
vt 0.000000 0.500000
vt 0.750000 0.490000
vt 0.796822 0.485388
vt 0.841844 0.471731
vt 0.883337 0.449553
vt 0.919706 0.419706
vt 0.949553 0.383337
vt 0.971731 0.341844
vt 0.985388 0.296822
vt 0.990000 0.250000
vt 0.985388 0.203178
vt 0.971731 0.158156
vt 0.949553 0.116663
vt 0.919706 0.080294
vt 0.883337 0.050447
vt 0.841844 0.028269
vt 0.796822 0.014612
vt 0.750000 0.010000
vt 0.703178 0.014612
vt 0.658156 0.028269
vt 0.616663 0.050447
vt 0.580294 0.080294
vt 0.550447 0.116663
vt 0.528269 0.158156
vt 0.514612 0.203178
vt 0.510000 0.250000
vt 0.514612 0.296822
vt 0.528269 0.341844
vt 0.550447 0.383337
vt 0.580294 0.419706
vt 0.616663 0.449553
vt 0.658156 0.471731
vt 0.703178 0.485388
s 0
f 297/368/202 298/369/202 300/370/202 299/371/202
f 299/371/203 300/370/203 302/372/203 301/373/203
f 301/373/204 302/372/204 304/374/204 303/375/204
f 303/375/205 304/374/205 306/376/205 305/377/205
f 305/377/206 306/376/206 308/378/206 307/379/206
f 307/379/207 308/378/207 310/380/207 309/381/207
f 309/381/208 310/380/208 312/382/208 311/383/208
f 311/383/209 312/382/209 314/384/209 313/385/209
f 313/385/210 314/384/210 316/386/210 315/387/210
f 315/387/211 316/386/211 318/388/211 317/389/211
f 317/389/212 318/388/212 320/390/212 319/391/212
f 319/391/213 320/390/213 322/392/213 321/393/213
f 321/393/214 322/392/214 324/394/214 323/395/214
f 323/395/215 324/394/215 326/396/215 325/397/215
f 325/397/216 326/396/216 328/398/216 327/399/216
f 327/399/217 328/398/217 330/400/217 329/401/217
f 329/401/218 330/400/218 332/402/218 331/403/218
f 331/403/219 332/402/219 334/404/219 333/405/219
f 333/405/220 334/404/220 336/406/220 335/407/220
f 335/407/221 336/406/221 338/408/221 337/409/221
f 337/409/222 338/408/222 340/410/222 339/411/222
f 339/411/223 340/410/223 342/412/223 341/413/223
f 341/413/224 342/412/224 344/414/224 343/415/224
f 343/415/225 344/414/225 346/416/225 345/417/225
f 345/417/226 346/416/226 348/418/226 347/419/226
f 347/419/227 348/418/227 350/420/227 349/421/227
f 349/421/228 350/420/228 352/422/228 351/423/228
f 351/423/229 352/422/229 354/424/229 353/425/229
f 353/425/230 354/424/230 356/426/230 355/427/230
f 355/427/231 356/426/231 358/428/231 357/429/231
f 300/430/232 298/431/232 360/432/232 358/433/232 356/434/232 354/435/232 352/436/232 350/437/232 348/438/232 346/439/232 344/440/232 342/441/232 340/442/232 338/443/232 336/444/232 334/445/232 332/446/232 330/447/232 328/448/232 326/449/232 324/450/232 322/451/232 320/452/232 318/453/232 316/454/232 314/455/232 312/456/232 310/457/232 308/458/232 306/459/232 304/460/232 302/461/232
f 357/429/233 358/428/233 360/462/233 359/463/233
f 359/463/234 360/462/234 298/464/234 297/465/234
f 297/466/235 299/467/235 301/468/235 303/469/235 305/470/235 307/471/235 309/472/235 311/473/235 313/474/235 315/475/235 317/476/235 319/477/235 321/478/235 323/479/235 325/480/235 327/481/235 329/482/235 331/483/235 333/484/235 335/485/235 337/486/235 339/487/235 341/488/235 343/489/235 345/490/235 347/491/235 349/492/235 351/493/235 353/494/235 355/495/235 357/496/235 359/497/235
o Cube.001
v -5.122753 3.611047 0.226941
v -5.122753 4.740526 0.226941
v -5.122753 3.611047 -0.226941
v -5.122753 4.740526 -0.226941
v -1.006118 3.611047 0.226941
v -1.006118 4.262298 0.226941
v -1.006118 3.611047 -0.226941
v -1.006118 4.262298 -0.226941
vn -1.0000 -0.0000 -0.0000
vn -0.0000 -0.0000 -1.0000
vn 1.0000 -0.0000 -0.0000
vn -0.0000 -0.0000 1.0000
vn -0.0000 -1.0000 -0.0000
vn 0.1154 0.9933 -0.0000
vt 0.375000 0.000000
vt 0.625000 0.000000
vt 0.625000 0.250000
vt 0.375000 0.250000
vt 0.625000 0.500000
vt 0.375000 0.500000
vt 0.625000 0.750000
vt 0.375000 0.750000
vt 0.625000 1.000000
vt 0.375000 1.000000
vt 0.125000 0.500000
vt 0.125000 0.750000
vt 0.875000 0.500000
vt 0.875000 0.750000
s 0
f 361/498/236 362/499/236 364/500/236 363/501/236
f 363/501/237 364/500/237 368/502/237 367/503/237
f 367/503/238 368/502/238 366/504/238 365/505/238
f 365/505/239 366/504/239 362/506/239 361/507/239
f 363/508/240 367/503/240 365/505/240 361/509/240
f 368/502/241 364/510/241 362/511/241 366/504/241
o Cube.002
v -7.513667 0.045263 0.519725
v -6.729744 1.469709 0.451522
v -7.513667 0.045263 -0.519725
v -6.729744 1.469709 -0.451522
v -5.316455 -0.641724 0.519725
v -5.157752 0.233246 0.451522
v -5.316455 -0.641724 -0.519725
v -5.157752 0.233246 -0.451522
v -7.881597 -0.887438 -0.552610
v -7.881597 -0.887438 0.552610
v -5.545359 -1.617894 -0.552610
v -5.545359 -1.617894 0.552610
v -8.194366 -1.837387 -0.559400
v -8.194366 -1.837387 0.559400
v -5.829424 -2.576817 -0.559400
v -5.829424 -2.576817 0.559400
v -8.299419 -3.014345 -0.451522
v -8.299419 -3.014345 0.451522
v -6.321203 -3.308729 -0.451522
v -6.321203 -3.308729 0.451522
v -8.759081 -4.094854 -0.519497
v -8.759081 -4.094854 0.519497
v -6.458376 -4.137091 -0.519497
v -6.458376 -4.137091 0.519497
vn -0.8761 0.4821 -0.0000
vn 0.0250 0.0490 -0.9985
vn 0.9839 -0.1785 -0.0000
vn 0.0250 0.0490 0.9985
vn 0.0098 0.0314 0.9995
vn 0.6182 0.7860 -0.0000
vn 0.9588 -0.2840 -0.0000
vn 0.0098 0.0314 -0.9995
vn -0.9302 0.3670 -0.0000
vn 0.9736 -0.2283 -0.0000
vn -0.0249 -0.1046 0.9942
vn -0.9498 0.3127 -0.0000
vn 0.0020 0.0065 1.0000
vn 0.0020 0.0065 -1.0000
vn 0.9866 -0.1634 -0.0000
vn -0.0249 -0.1046 -0.9942
vn 0.8300 -0.5577 -0.0000
vn -0.9960 0.0889 -0.0000
vn -0.0184 -0.9998 -0.0000
vn -0.9202 0.3915 -0.0000
vn 0.0055 0.0693 0.9976
vn 0.0055 0.0693 -0.9976
vt 0.375000 0.000000
vt 0.625000 0.000000
vt 0.625000 0.250000
vt 0.375000 0.250000
vt 0.625000 0.500000
vt 0.375000 0.500000
vt 0.625000 0.750000
vt 0.375000 0.750000
vt 0.625000 1.000000
vt 0.375000 1.000000
vt 0.875000 0.500000
vt 0.875000 0.750000
vt 0.125000 0.500000
vt 0.125000 0.750000
s 0
f 369/512/242 370/513/242 372/514/242 371/515/242
f 371/515/243 372/514/243 376/516/243 375/517/243
f 375/517/244 376/516/244 374/518/244 373/519/244
f 373/519/245 374/518/245 370/520/245 369/521/245
f 373/519/246 369/521/246 378/521/246 380/519/246
f 376/516/247 372/522/247 370/523/247 374/518/247
f 379/517/248 380/519/248 384/519/248 383/517/248
f 371/515/249 375/517/249 379/517/249 377/515/249
f 369/512/250 371/515/250 377/515/250 378/512/250
f 375/517/251 373/519/251 380/519/251 379/517/251
f 384/519/252 382/521/252 386/521/252 388/519/252
f 378/512/253 377/515/253 381/515/253 382/512/253
f 380/519/254 378/521/254 382/521/254 384/519/254
f 377/515/255 379/517/255 383/517/255 381/515/255
f 387/517/256 388/519/256 392/519/256 391/517/256
f 381/515/257 383/517/257 387/517/257 385/515/257
f 383/517/258 384/519/258 388/519/258 387/517/258
f 382/512/259 381/515/259 385/515/259 386/512/259
f 389/524/260 391/517/260 392/519/260 390/525/260
f 386/512/261 385/515/261 389/515/261 390/512/261
f 388/519/262 386/521/262 390/521/262 392/519/262
f 385/515/263 387/517/263 391/517/263 389/515/263
o Cube.003
v -0.827014 3.998839 0.586305
v -0.827014 3.998839 -0.586305
v -7.279625 1.785504 0.586305
v -7.279625 1.785504 -0.586305
v -7.222049 1.779833 -0.586305
v -6.358666 1.951571 -0.586305
v -5.968612 2.160059 -0.586305
v -6.781900 1.823184 -0.586305
v -5.626726 2.440637 -0.586305
v -4.969578 3.998839 -0.586305
v -5.137660 3.172577 -0.586305
v -5.009273 3.595811 -0.586305
v -5.346148 2.782523 -0.586305
v -5.346148 2.782523 0.586305
v -5.137660 3.172577 0.586305
v -5.009273 3.595811 0.586305
v -4.969578 3.998839 0.586305
v -6.781900 1.823184 0.586305
v -7.222049 1.779833 0.586305
v -5.626726 2.440637 0.586305
v -5.968612 2.160059 0.586305
v -6.358666 1.951571 0.586305
v -7.279625 0.993344 0.586305
v -7.279625 0.993344 -0.586305
v -6.902284 1.030509 -0.586305
v -6.462135 0.987158 -0.586305
v -6.038901 0.858772 -0.586305
v -5.306962 0.369705 -0.586305
v -5.648847 0.650283 -0.586305
v -6.902284 1.030509 0.586305
v -6.038901 0.858772 0.586305
v -5.306962 0.369705 0.586305
v -5.648847 0.650283 0.586305
v -6.462135 0.987158 0.586305
v -5.132363 0.156956 -0.586305
v -0.827014 0.156956 -0.586305
v -0.827014 0.156956 0.586305
v -5.132363 0.156956 0.586305
v -2.943473 0.156956 -0.586305
v -2.943473 0.156956 0.586305
v -1.822335 0.156956 -0.586305
v -1.822335 0.156956 0.586305
v -2.369769 -0.520025 0.297479
v -2.900055 -0.314164 0.297479
v -2.900055 -0.314164 -0.297479
v -2.369769 -0.520025 -0.297479
v -2.714526 -1.254033 0.297479
v -3.198454 -0.955041 0.297479
v -3.198454 -0.955041 -0.297479
v -2.714527 -1.254033 -0.297479
v -3.345239 -1.924462 0.297479
v -3.670614 -1.457865 0.297479
v -3.670614 -1.457865 -0.297479
v -3.345240 -1.924462 -0.297479
v -6.060713 -1.377647 0.304330
v -5.912963 -0.814774 0.304330
v -5.912963 -0.814774 -0.304329
v -6.060713 -1.377647 -0.304329
v -4.528180 3.759265 -0.586305
v -4.528180 3.460018 -0.586305
v -1.773420 3.759265 -0.586305
v -1.773420 0.835094 -0.586305
v -4.528180 0.835094 -0.586305
v -4.528180 3.642172 0.586305
v -4.528180 3.759265 0.586305
v -1.773420 0.835094 0.586305
v -1.773420 3.759265 0.586305
v -4.528180 0.835094 0.586305
vn -1.0000 -0.0000 -0.0000
vn -0.0000 -0.0000 -1.0000
vn 1.0000 -0.0000 -0.0000
vn -0.0000 -0.0000 1.0000
vn -0.0000 1.0000 -0.0000
vn -0.9952 0.0980 -0.0000
vn -0.9569 0.2903 -0.0000
vn -0.8819 0.4714 -0.0000
vn -0.7730 0.6344 -0.0000
vn -0.6344 0.7730 -0.0000
vn -0.4714 0.8819 -0.0000
vn -0.2903 0.9569 -0.0000
vn -0.0980 0.9952 -0.0000
vn 0.0980 0.9952 -0.0000
vn -0.0980 -0.9952 -0.0000
vn -0.2903 -0.9569 -0.0000
vn -0.4714 -0.8819 -0.0000
vn -0.6344 -0.7730 -0.0000
vn -0.7730 -0.6344 -0.0000
vn 0.0980 -0.9952 -0.0000
vn -0.0000 -1.0000 -0.0000
vn -0.9958 -0.0918 -0.0000
vn 0.7776 -0.6288 -0.0000
vn -0.0536 -0.4299 -0.9013
vn -0.0536 -0.4299 0.9013
vn 0.7284 -0.6852 -0.0000
vn 0.9051 -0.4251 -0.0000
vn -0.9065 0.4221 -0.0000
vn 0.0029 0.0005 -1.0000
vn -0.7290 0.6845 -0.0000
vn -0.9672 0.2539 -0.0000
vn 0.0029 0.0005 1.0000
vn -0.1974 -0.9803 -0.0000
vn 0.2757 0.9612 -0.0000
vt 0.500282 0.000000
vt 0.533154 0.000000
vt 0.533154 0.250000
vt 0.500282 0.250000
vt 0.615058 0.356632
vt 0.625000 0.339500
vt 0.625000 0.500000
vt 0.465574 0.500000
vt 0.465574 0.454291
vt 0.465574 0.424434
vt 0.465575 0.333194
vt 0.474403 0.326429
vt 0.486046 0.313183
vt 0.494698 0.298071
vt 0.500025 0.281673
vt 0.501824 0.264620
vt 0.532919 0.252231
vt 0.534717 0.269284
vt 0.540045 0.285682
vt 0.548697 0.300794
vt 0.560340 0.314040
vt 0.574527 0.324911
vt 0.590713 0.332988
vt 0.608276 0.337963
vt 0.602641 0.356664
vt 0.493715 0.357749
vt 0.493715 0.461797
vt 0.615058 0.463340
vt 0.625000 0.750000
vt 0.465574 0.750000
vt 0.625000 0.910500
vt 0.608276 0.912038
vt 0.610200 0.893355
vt 0.615058 0.893368
vt 0.590713 0.917012
vt 0.574527 0.925089
vt 0.560340 0.935960
vt 0.548697 0.949206
vt 0.540045 0.964318
vt 0.534718 0.980716
vt 0.532919 0.997769
vt 0.533154 1.000000
vt 0.500282 1.000000
vt 0.501824 0.985380
vt 0.500025 0.968327
vt 0.494698 0.951929
vt 0.486046 0.936817
vt 0.474403 0.923571
vt 0.465575 0.916807
vt 0.465574 0.825566
vt 0.465574 0.795709
vt 0.615058 0.786660
vt 0.493715 0.788203
vt 0.493715 0.892251
vt 0.785500 0.500000
vt 0.785500 0.750000
vt 0.747365 0.685032
vt 0.718750 0.685032
vt 0.718750 0.814968
vt 0.747365 0.814968
vt 0.687500 0.685032
vt 0.687500 0.814968
vt 0.656250 0.685032
vt 0.656250 0.814968
vt 0.625000 0.685032
vt 0.625000 0.814968
vt 0.593750 0.685032
vt 0.593750 0.814968
vt 0.562500 0.685032
vt 0.562500 0.814968
vt 0.531250 0.685032
vt 0.531250 0.814968
vt 0.500000 0.685032
vt 0.500000 0.814968
vt 0.495912 0.685032
vt 0.495912 0.814968
vt 1.000000 0.685032
vt 0.968750 0.685032
vt 0.968750 0.814968
vt 1.000000 0.814968
vt 0.937500 0.685032
vt 0.937500 0.814968
vt 0.906250 0.685032
vt 0.906250 0.814968
vt 0.875000 0.685032
vt 0.875000 0.814968
vt 0.855554 0.685032
vt 0.855554 0.814968
vt 0.026791 0.685032
vt 0.000000 0.685032
vt 0.000000 0.814968
vt 0.026791 0.814968
vt 0.696411 0.551712
vt 0.654031 0.551712
vt 0.654031 0.698288
vt 0.696411 0.698288
vt 0.808688 0.551712
vt 0.724093 0.551712
vt 0.724093 0.698288
vt 0.808688 0.698288
vt 0.375000 0.178208
vt 0.599416 0.178208
vt 0.625000 0.178208
vt 0.625000 0.071792
vt 0.614989 0.071792
vt 0.375000 0.071792
vt 0.625000 0.678208
vt 0.625000 0.571792
vt 0.375000 0.571792
vt 0.375000 0.678208
vt 0.125000 0.571792
vt 0.125000 0.678208
vt 0.875000 0.571792
vt 0.875000 0.678208
s 0
usemtl 
f 415/526/264 395/527/264 396/528/264 416/529/264
f 451/530/265 402/531/265 394/532/265 428/533/265 433/534/265 431/535/265 427/536/265 420/537/265 421/538/265 419/539/265 418/540/265 417/541/265 416/529/265 396/528/265 397/542/265 400/543/265 398/544/265 399/545/265 401/546/265 405/547/265 403/548/265 404/549/265 452/550/265 455/551/265 454/552/265 453/553/265
f 402/531/265 451/530/265 452/550/265 404/549/265
f 428/533/266 394/532/266 393/554/266 429/555/266
f 409/556/267 408/557/267 456/558/267 457/559/267
f 408/557/267 407/560/267 406/561/267 412/562/267 413/563/267 414/564/267 410/565/267 411/566/267 395/567/267 415/568/267 422/569/267 426/570/267 423/571/267 425/572/267 424/573/267 430/574/267 432/575/267 434/576/267 429/555/267 393/554/267 409/556/267 457/559/267 459/577/267 458/578/267 460/579/267 456/558/267
f 393/554/268 394/532/268 402/580/268 409/581/268
f 402/582/269 404/583/269 408/584/269 409/585/269
f 408/584/270 404/583/270 403/586/270 407/587/270
f 407/587/271 403/586/271 405/588/271 406/589/271
f 406/589/272 405/588/272 401/590/272 412/591/272
f 412/591/273 401/590/273 399/592/273 413/593/273
f 413/593/274 399/592/274 398/594/274 414/595/274
f 414/595/275 398/594/275 400/596/275 410/597/275
f 410/597/276 400/596/276 397/598/276 411/599/276
f 396/600/277 395/601/277 411/599/277 397/598/277
f 417/602/278 418/603/278 426/604/278 422/605/278
f 418/603/279 419/606/279 423/607/279 426/604/279
f 419/606/280 421/608/280 425/609/280 423/607/280
f 421/608/281 420/610/281 424/611/281 425/609/281
f 424/611/282 420/610/282 427/612/282 430/613/282
f 416/614/283 417/615/283 422/616/283 415/617/283
f 433/618/284 428/619/284 429/620/284 434/621/284
f 427/622/284 431/623/284 432/624/284 430/625/284
f 432/624/285 431/623/285 437/623/285 436/624/285
f 437/535/265 438/534/265 442/534/265 441/535/265
f 433/618/286 434/621/286 435/621/286 438/618/286
f 431/535/287 433/534/287 438/534/287 437/535/287
f 434/576/288 432/575/288 436/575/288 435/576/288
f 442/618/289 439/621/289 443/621/289 446/618/289
f 435/576/267 436/575/267 440/575/267 439/576/267
f 438/618/290 435/621/290 439/621/290 442/618/290
f 436/624/291 437/623/291 441/623/291 440/624/291
f 445/535/292 446/534/292 450/534/292 449/535/292
f 440/624/293 441/623/293 445/623/293 444/624/293
f 441/535/265 442/534/265 446/534/265 445/535/265
f 439/576/267 440/575/267 444/575/267 443/576/267
f 449/623/294 450/618/294 447/621/294 448/624/294
f 443/576/295 444/575/295 448/575/295 447/576/295
f 446/618/296 443/621/296 447/621/296 450/618/296
f 444/624/297 445/623/297 449/623/297 448/624/297
f 455/626/266 452/627/266 451/628/266 457/629/266 456/630/266 460/631/266
f 459/632/264 453/633/264 454/634/264 458/635/264
f 458/635/268 454/634/268 455/636/268 460/637/268
f 451/638/284 453/633/284 459/632/284 457/639/284
